<mxfile host="app.diagrams.net" modified="2022-01-07T15:20:40.843Z" agent="5.0 (Windows NT 10.0; Win64; x64) AppleWebKit/537.36 (KHTML, like Gecko) Chrome/96.0.4664.110 Safari/537.36 OPR/82.0.4227.43" etag="WJBLnhrPLBtcu9g_z17V" version="16.2.3" type="github">
  <diagram id="1oEfrQTiqn_OG8l2WOmU" name="Page-1">
    <mxGraphModel dx="1256" dy="695" grid="1" gridSize="10" guides="1" tooltips="1" connect="1" arrows="1" fold="1" page="1" pageScale="1" pageWidth="850" pageHeight="1100" math="0" shadow="0">
      <root>
        <mxCell id="0" />
        <mxCell id="1" parent="0" />
        <mxCell id="7HR0Fmcc-iZMN8jbCPw4-2" value="Animal" style="swimlane;" vertex="1" parent="1">
          <mxGeometry x="390" y="120" width="200" height="140" as="geometry" />
        </mxCell>
        <mxCell id="7HR0Fmcc-iZMN8jbCPw4-3" value="String: Type&amp;nbsp;&lt;br&gt;String: Name&lt;br&gt;String: Colour" style="whiteSpace=wrap;html=1;" vertex="1" parent="7HR0Fmcc-iZMN8jbCPw4-2">
          <mxGeometry y="20" width="200" height="60" as="geometry" />
        </mxCell>
        <mxCell id="7HR0Fmcc-iZMN8jbCPw4-4" value="makeNoise()" style="text;html=1;align=center;verticalAlign=middle;resizable=0;points=[];autosize=1;strokeColor=none;fillColor=none;" vertex="1" parent="7HR0Fmcc-iZMN8jbCPw4-2">
          <mxGeometry y="90" width="80" height="20" as="geometry" />
        </mxCell>
        <mxCell id="7HR0Fmcc-iZMN8jbCPw4-5" value="animalSleeps()" style="text;html=1;align=center;verticalAlign=middle;resizable=0;points=[];autosize=1;strokeColor=none;fillColor=none;" vertex="1" parent="7HR0Fmcc-iZMN8jbCPw4-2">
          <mxGeometry x="90" y="90" width="100" height="20" as="geometry" />
        </mxCell>
        <mxCell id="7HR0Fmcc-iZMN8jbCPw4-8" value="Dog" style="swimlane;" vertex="1" parent="1">
          <mxGeometry x="10" y="530" width="200" height="140" as="geometry" />
        </mxCell>
        <mxCell id="7HR0Fmcc-iZMN8jbCPw4-9" value="" style="whiteSpace=wrap;html=1;" vertex="1" parent="7HR0Fmcc-iZMN8jbCPw4-8">
          <mxGeometry y="20" width="200" height="60" as="geometry" />
        </mxCell>
        <mxCell id="7HR0Fmcc-iZMN8jbCPw4-10" value="call: makenoise()" style="text;html=1;align=center;verticalAlign=middle;resizable=0;points=[];autosize=1;strokeColor=none;fillColor=none;" vertex="1" parent="7HR0Fmcc-iZMN8jbCPw4-8">
          <mxGeometry x="44" y="80" width="110" height="20" as="geometry" />
        </mxCell>
        <mxCell id="7HR0Fmcc-iZMN8jbCPw4-11" value="call: isPet()" style="text;html=1;align=center;verticalAlign=middle;resizable=0;points=[];autosize=1;strokeColor=none;fillColor=none;" vertex="1" parent="7HR0Fmcc-iZMN8jbCPw4-8">
          <mxGeometry x="60" y="100" width="70" height="20" as="geometry" />
        </mxCell>
        <mxCell id="7HR0Fmcc-iZMN8jbCPw4-12" value="hasTail()" style="text;html=1;align=center;verticalAlign=middle;resizable=0;points=[];autosize=1;strokeColor=none;fillColor=none;" vertex="1" parent="7HR0Fmcc-iZMN8jbCPw4-8">
          <mxGeometry x="65" y="40" width="60" height="20" as="geometry" />
        </mxCell>
        <mxCell id="7HR0Fmcc-iZMN8jbCPw4-15" value="call :doesFly()" style="text;html=1;align=center;verticalAlign=middle;resizable=0;points=[];autosize=1;strokeColor=none;fillColor=none;" vertex="1" parent="7HR0Fmcc-iZMN8jbCPw4-8">
          <mxGeometry x="50" y="120" width="90" height="20" as="geometry" />
        </mxCell>
        <mxCell id="7HR0Fmcc-iZMN8jbCPw4-16" value="Cat" style="swimlane;startSize=23;" vertex="1" parent="1">
          <mxGeometry x="240" y="530" width="200" height="140" as="geometry" />
        </mxCell>
        <mxCell id="7HR0Fmcc-iZMN8jbCPw4-17" value="" style="whiteSpace=wrap;html=1;" vertex="1" parent="7HR0Fmcc-iZMN8jbCPw4-16">
          <mxGeometry y="20" width="200" height="60" as="geometry" />
        </mxCell>
        <mxCell id="7HR0Fmcc-iZMN8jbCPw4-18" value="call: makenoise()" style="text;html=1;align=center;verticalAlign=middle;resizable=0;points=[];autosize=1;strokeColor=none;fillColor=none;" vertex="1" parent="7HR0Fmcc-iZMN8jbCPw4-16">
          <mxGeometry x="44" y="80" width="110" height="20" as="geometry" />
        </mxCell>
        <mxCell id="7HR0Fmcc-iZMN8jbCPw4-19" value="call: isPet()" style="text;html=1;align=center;verticalAlign=middle;resizable=0;points=[];autosize=1;strokeColor=none;fillColor=none;" vertex="1" parent="7HR0Fmcc-iZMN8jbCPw4-16">
          <mxGeometry x="60" y="100" width="70" height="20" as="geometry" />
        </mxCell>
        <mxCell id="7HR0Fmcc-iZMN8jbCPw4-20" value="hasTail()" style="text;html=1;align=center;verticalAlign=middle;resizable=0;points=[];autosize=1;strokeColor=none;fillColor=none;" vertex="1" parent="7HR0Fmcc-iZMN8jbCPw4-16">
          <mxGeometry x="65" y="40" width="60" height="20" as="geometry" />
        </mxCell>
        <mxCell id="7HR0Fmcc-iZMN8jbCPw4-21" value="call :doesFly()" style="text;html=1;align=center;verticalAlign=middle;resizable=0;points=[];autosize=1;strokeColor=none;fillColor=none;" vertex="1" parent="7HR0Fmcc-iZMN8jbCPw4-16">
          <mxGeometry x="50" y="120" width="90" height="20" as="geometry" />
        </mxCell>
        <mxCell id="7HR0Fmcc-iZMN8jbCPw4-22" value="Pigeon" style="swimlane;" vertex="1" parent="1">
          <mxGeometry x="460" y="530" width="200" height="140" as="geometry" />
        </mxCell>
        <mxCell id="7HR0Fmcc-iZMN8jbCPw4-23" value="" style="whiteSpace=wrap;html=1;" vertex="1" parent="7HR0Fmcc-iZMN8jbCPw4-22">
          <mxGeometry y="20" width="200" height="60" as="geometry" />
        </mxCell>
        <mxCell id="7HR0Fmcc-iZMN8jbCPw4-24" value="call: makenoise()" style="text;html=1;align=center;verticalAlign=middle;resizable=0;points=[];autosize=1;strokeColor=none;fillColor=none;" vertex="1" parent="7HR0Fmcc-iZMN8jbCPw4-22">
          <mxGeometry x="44" y="80" width="110" height="20" as="geometry" />
        </mxCell>
        <mxCell id="7HR0Fmcc-iZMN8jbCPw4-25" value="call: isPet()" style="text;html=1;align=center;verticalAlign=middle;resizable=0;points=[];autosize=1;strokeColor=none;fillColor=none;" vertex="1" parent="7HR0Fmcc-iZMN8jbCPw4-22">
          <mxGeometry x="60" y="100" width="70" height="20" as="geometry" />
        </mxCell>
        <mxCell id="7HR0Fmcc-iZMN8jbCPw4-26" value="hasWings()" style="text;html=1;align=center;verticalAlign=middle;resizable=0;points=[];autosize=1;strokeColor=none;fillColor=none;" vertex="1" parent="7HR0Fmcc-iZMN8jbCPw4-22">
          <mxGeometry x="55" y="40" width="80" height="20" as="geometry" />
        </mxCell>
        <mxCell id="7HR0Fmcc-iZMN8jbCPw4-27" value="call :doesFly()" style="text;html=1;align=center;verticalAlign=middle;resizable=0;points=[];autosize=1;strokeColor=none;fillColor=none;" vertex="1" parent="7HR0Fmcc-iZMN8jbCPw4-22">
          <mxGeometry x="50" y="120" width="90" height="20" as="geometry" />
        </mxCell>
        <mxCell id="7HR0Fmcc-iZMN8jbCPw4-28" value="Bat" style="swimlane;" vertex="1" parent="1">
          <mxGeometry x="670" y="530" width="200" height="140" as="geometry" />
        </mxCell>
        <mxCell id="7HR0Fmcc-iZMN8jbCPw4-29" value="" style="whiteSpace=wrap;html=1;" vertex="1" parent="7HR0Fmcc-iZMN8jbCPw4-28">
          <mxGeometry y="20" width="200" height="60" as="geometry" />
        </mxCell>
        <mxCell id="7HR0Fmcc-iZMN8jbCPw4-30" value="call: makenoise()" style="text;html=1;align=center;verticalAlign=middle;resizable=0;points=[];autosize=1;strokeColor=none;fillColor=none;" vertex="1" parent="7HR0Fmcc-iZMN8jbCPw4-28">
          <mxGeometry x="44" y="80" width="110" height="20" as="geometry" />
        </mxCell>
        <mxCell id="7HR0Fmcc-iZMN8jbCPw4-31" value="call: isPet()" style="text;html=1;align=center;verticalAlign=middle;resizable=0;points=[];autosize=1;strokeColor=none;fillColor=none;" vertex="1" parent="7HR0Fmcc-iZMN8jbCPw4-28">
          <mxGeometry x="60" y="100" width="70" height="20" as="geometry" />
        </mxCell>
        <mxCell id="7HR0Fmcc-iZMN8jbCPw4-32" value="hasWings()" style="text;html=1;align=center;verticalAlign=middle;resizable=0;points=[];autosize=1;strokeColor=none;fillColor=none;" vertex="1" parent="7HR0Fmcc-iZMN8jbCPw4-28">
          <mxGeometry x="55" y="40" width="80" height="20" as="geometry" />
        </mxCell>
        <mxCell id="7HR0Fmcc-iZMN8jbCPw4-33" value="call :doesFly()" style="text;html=1;align=center;verticalAlign=middle;resizable=0;points=[];autosize=1;strokeColor=none;fillColor=none;" vertex="1" parent="7HR0Fmcc-iZMN8jbCPw4-28">
          <mxGeometry x="50" y="120" width="90" height="20" as="geometry" />
        </mxCell>
        <mxCell id="7HR0Fmcc-iZMN8jbCPw4-34" value="" style="endArrow=classic;html=1;rounded=0;" edge="1" parent="1">
          <mxGeometry width="50" height="50" relative="1" as="geometry">
            <mxPoint x="130" y="530" as="sourcePoint" />
            <mxPoint x="420" y="260" as="targetPoint" />
          </mxGeometry>
        </mxCell>
        <mxCell id="7HR0Fmcc-iZMN8jbCPw4-35" value="" style="endArrow=classic;html=1;rounded=0;" edge="1" parent="1" source="7HR0Fmcc-iZMN8jbCPw4-16">
          <mxGeometry width="50" height="50" relative="1" as="geometry">
            <mxPoint x="140" y="540" as="sourcePoint" />
            <mxPoint x="430" y="260" as="targetPoint" />
          </mxGeometry>
        </mxCell>
        <mxCell id="7HR0Fmcc-iZMN8jbCPw4-36" value="" style="endArrow=classic;html=1;rounded=0;exitX=0.5;exitY=0;exitDx=0;exitDy=0;" edge="1" parent="1" source="7HR0Fmcc-iZMN8jbCPw4-22">
          <mxGeometry width="50" height="50" relative="1" as="geometry">
            <mxPoint x="419.9994117647061" y="530" as="sourcePoint" />
            <mxPoint x="491.47" y="259.9999999999999" as="targetPoint" />
          </mxGeometry>
        </mxCell>
        <mxCell id="7HR0Fmcc-iZMN8jbCPw4-37" value="" style="endArrow=classic;html=1;rounded=0;exitX=0.5;exitY=0;exitDx=0;exitDy=0;" edge="1" parent="1" source="7HR0Fmcc-iZMN8jbCPw4-28">
          <mxGeometry width="50" height="50" relative="1" as="geometry">
            <mxPoint x="378.5294117647061" y="550" as="sourcePoint" />
            <mxPoint x="520" y="260" as="targetPoint" />
          </mxGeometry>
        </mxCell>
        <mxCell id="7HR0Fmcc-iZMN8jbCPw4-38" value="Dog, Cat, Pigeon, Bat extend Animal" style="text;html=1;align=center;verticalAlign=middle;resizable=0;points=[];autosize=1;strokeColor=none;fillColor=none;" vertex="1" parent="1">
          <mxGeometry x="5" y="440" width="210" height="20" as="geometry" />
        </mxCell>
        <mxCell id="7HR0Fmcc-iZMN8jbCPw4-39" value="isPet" style="swimlane;" vertex="1" parent="1">
          <mxGeometry x="60" y="100" width="200" height="80" as="geometry" />
        </mxCell>
        <mxCell id="7HR0Fmcc-iZMN8jbCPw4-40" value="String isPet()" style="text;html=1;align=center;verticalAlign=middle;resizable=0;points=[];autosize=1;strokeColor=none;fillColor=none;" vertex="1" parent="1">
          <mxGeometry x="110" y="140" width="80" height="20" as="geometry" />
        </mxCell>
        <mxCell id="7HR0Fmcc-iZMN8jbCPw4-41" value="doesFly" style="swimlane;startSize=23;" vertex="1" parent="1">
          <mxGeometry x="680" y="100" width="200" height="80" as="geometry" />
        </mxCell>
        <mxCell id="7HR0Fmcc-iZMN8jbCPw4-42" value="" style="endArrow=none;dashed=1;html=1;dashPattern=1 3;strokeWidth=2;rounded=0;" edge="1" parent="1">
          <mxGeometry width="50" height="50" relative="1" as="geometry">
            <mxPoint x="770" y="530" as="sourcePoint" />
            <mxPoint x="760" y="180" as="targetPoint" />
          </mxGeometry>
        </mxCell>
        <mxCell id="7HR0Fmcc-iZMN8jbCPw4-43" value="" style="endArrow=none;dashed=1;html=1;dashPattern=1 3;strokeWidth=2;rounded=0;" edge="1" parent="1">
          <mxGeometry width="50" height="50" relative="1" as="geometry">
            <mxPoint x="560.0000000000002" y="530" as="sourcePoint" />
            <mxPoint x="760" y="180" as="targetPoint" />
          </mxGeometry>
        </mxCell>
        <mxCell id="7HR0Fmcc-iZMN8jbCPw4-44" value="" style="endArrow=none;dashed=1;html=1;dashPattern=1 3;strokeWidth=2;rounded=0;" edge="1" parent="1">
          <mxGeometry width="50" height="50" relative="1" as="geometry">
            <mxPoint x="360.0000000000002" y="540" as="sourcePoint" />
            <mxPoint x="760" y="180" as="targetPoint" />
          </mxGeometry>
        </mxCell>
        <mxCell id="7HR0Fmcc-iZMN8jbCPw4-45" value="" style="endArrow=none;dashed=1;html=1;dashPattern=1 3;strokeWidth=2;rounded=0;" edge="1" parent="1">
          <mxGeometry width="50" height="50" relative="1" as="geometry">
            <mxPoint x="130.00000000000023" y="530" as="sourcePoint" />
            <mxPoint x="760" y="180" as="targetPoint" />
          </mxGeometry>
        </mxCell>
        <mxCell id="7HR0Fmcc-iZMN8jbCPw4-46" value="String doesFly()" style="text;html=1;align=center;verticalAlign=middle;resizable=0;points=[];autosize=1;strokeColor=none;fillColor=none;" vertex="1" parent="1">
          <mxGeometry x="740" y="150" width="100" height="20" as="geometry" />
        </mxCell>
        <mxCell id="7HR0Fmcc-iZMN8jbCPw4-47" value="" style="endArrow=none;dashed=1;html=1;dashPattern=1 3;strokeWidth=2;rounded=0;entryX=0.5;entryY=1;entryDx=0;entryDy=0;" edge="1" parent="1" target="7HR0Fmcc-iZMN8jbCPw4-39">
          <mxGeometry width="50" height="50" relative="1" as="geometry">
            <mxPoint x="130" y="530" as="sourcePoint" />
            <mxPoint x="770.0000000000002" y="190" as="targetPoint" />
          </mxGeometry>
        </mxCell>
        <mxCell id="7HR0Fmcc-iZMN8jbCPw4-48" value="" style="endArrow=none;dashed=1;html=1;dashPattern=1 3;strokeWidth=2;rounded=0;exitX=0.606;exitY=-0.003;exitDx=0;exitDy=0;exitPerimeter=0;" edge="1" parent="1" source="7HR0Fmcc-iZMN8jbCPw4-16">
          <mxGeometry width="50" height="50" relative="1" as="geometry">
            <mxPoint x="140" y="540" as="sourcePoint" />
            <mxPoint x="160" y="180" as="targetPoint" />
          </mxGeometry>
        </mxCell>
        <mxCell id="7HR0Fmcc-iZMN8jbCPw4-49" value="" style="endArrow=none;dashed=1;html=1;dashPattern=1 3;strokeWidth=2;rounded=0;exitX=0.5;exitY=0;exitDx=0;exitDy=0;" edge="1" parent="1" source="7HR0Fmcc-iZMN8jbCPw4-22">
          <mxGeometry width="50" height="50" relative="1" as="geometry">
            <mxPoint x="150" y="550" as="sourcePoint" />
            <mxPoint x="160" y="180" as="targetPoint" />
          </mxGeometry>
        </mxCell>
        <mxCell id="7HR0Fmcc-iZMN8jbCPw4-50" value="" style="endArrow=none;dashed=1;html=1;dashPattern=1 3;strokeWidth=2;rounded=0;exitX=0.5;exitY=0;exitDx=0;exitDy=0;" edge="1" parent="1" source="7HR0Fmcc-iZMN8jbCPw4-28">
          <mxGeometry width="50" height="50" relative="1" as="geometry">
            <mxPoint x="160" y="560" as="sourcePoint" />
            <mxPoint x="160" y="190" as="targetPoint" />
          </mxGeometry>
        </mxCell>
      </root>
    </mxGraphModel>
  </diagram>
</mxfile>
